:version 1.10
:name ASF
:units
  mass 1
  length 1
  angle deg
:documentation
  ASF file generated by Kaydara
:root
  axis xyz
  order  tx ty tz rx ry rz
  position 0 0 0
  orientation 0 0 0
:bonedata
  begin
    id 1
    name RightUpLegDummy
    direction -0.718183 -0.695806 0.00816078
    length 4.904
    axis 0 0 0 xyz
  end
  begin
    id 2
    name RightUpLeg
    direction 3.53373e-006 -0.995788 0.0916898
    length 17.4976
    axis -3.49089 -0.000906625 0.000286804 xyz
    dof rx ry rz
  end
  begin
    id 3
    name RightLeg
    direction 0.00371092 -0.995096 -0.0988419
    length 16.5821
    axis 3.68512 0.0193738 -0.131023 xyz
    dof rx ry rz
  end
  begin
    id 4
    name RightFoot
    direction 0.00079151 -0.46099 0.887405
    length 3.77069
    axis 4.81691e-005 -0.120479 -0.188788 xyz
    dof rx ry rz
  end
  begin
    id 5
    name RightToes
    direction 0 0 0
    length 0
    axis 0 0 0 xyz
    dof rx ry rz
  end
  begin
    id 6
    name SpineDummy
    direction 8.3039e-015 1 4.57515e-016
    length 4.6813
    axis 0 0 0 xyz
  end
  begin
    id 7
    name Spine
    direction -3.15643e-008 0.999988 0.00495137
    length 10.1015
    axis -0.001389 0.000121418 2.40972e-006 xyz
    dof rx ry rz
  end
  begin
    id 8
    name Spine1
    direction 0 0 0
    length 0
    axis -0.001389 0.000121451 1.30017e-006 xyz
    dof rx ry rz
  end
  begin
    id 9
    name HEadDummy
    direction -1.99912e-008 0.999999 0.00127422
    length 3.43865
    axis -0.001389 0.000121451 1.30017e-006 xyz
  end
  begin
    id 10
    name HEad
    direction 0 0 0
    length 0
    axis 0 0 0 xyz
    dof rx ry rz
  end
  begin
    id 11
    name LeftShoulder1Dummy
    direction 0.998891 -0.0402509 -0.0244456
    length 3.5433
    axis -0.001389 0.000121451 1.30017e-006 xyz
  end
  begin
    id 12
    name LeftShoulder1
    direction 0.99951 -0.000327763 0.0313091
    length 4.05031
    axis -0.001389 0.000121451 1.30017e-006 xyz
    dof rx ry rz
  end
  begin
    id 13
    name LeftArm
    direction 0.998561 -0.00100056 -0.0536182
    length 10.3537
    axis -23.1894 0.134784 0.967509 xyz
    dof rx ry rz
  end
  begin
    id 14
    name LeftForeArm
    direction 0.998903 0.00866432 0.046012
    length 8.70632
    axis -9.91835 -0.06569 -0.177794 xyz
    dof rx ry rz
  end
  begin
    id 15
    name LeftHand
    direction 0 0 0
    length 0
    axis 0 0 0 xyz
    dof rx ry rz
  end
  begin
    id 16
    name RightShoulderDummy
    direction -0.998891 -0.0402509 -0.0244414
    length 3.5433
    axis -0.001389 0.000121451 1.30017e-006 xyz
  end
  begin
    id 17
    name RightShoulder
    direction -0.99951 -0.000327807 0.0313133
    length 4.05031
    axis 0.215806 0.000203643 -0.0068026 xyz
    dof rx ry rz
  end
  begin
    id 18
    name RightArm
    direction -0.998573 -0.000999564 -0.053403
    length 10.3947
    axis -23.2009 -0.134239 -0.964101 xyz
    dof rx ry rz
  end
  begin
    id 19
    name RightForeArm
    direction -0.998898 0.00868028 0.0461306
    length 8.68355
    axis -9.92322 0.0658061 0.178868 xyz
    dof rx ry rz
  end
  begin
    id 20
    name RightHand
    direction 0 0 0
    length 0
    axis 0 0 0 xyz
    dof rx ry rz
  end
  begin
    id 21
    name LeftUpLegDummy
    direction 0.718183 -0.695806 0.00816078
    length 4.904
    axis 0 0 0 xyz
  end
  begin
    id 22
    name LeftUpLeg
    direction -6.81752e-006 -0.995793 0.0916337
    length 17.4976
    axis -3.48766 0.00143442 -0.000524262 xyz
    dof rx ry rz
  end
  begin
    id 23
    name LeftLeg
    direction -0.00601358 -0.995091 -0.0987824
    length 16.5821
    axis 3.68178 -0.00654042 -0.000285133 xyz
    dof rx ry rz
  end
  begin
    id 24
    name LeftFoot
    direction -0.00417578 -0.460984 0.887399
    length 3.77069
    axis 1.87233e-006 4.66016e-005 -8.6538e-006 xyz
    dof rx ry rz
  end
  begin
    id 25
    name LeftToes
    direction 0 0 0
    length 0
    axis 0 0 0 xyz
    dof rx ry rz
  end
:hierarchy
  begin
    root RightUpLegDummy SpineDummy LeftUpLegDummy
    RightUpLegDummy RightUpLeg
    RightUpLeg RightLeg
    RightLeg RightFoot
    RightFoot RightToes
    SpineDummy Spine
    Spine Spine1
    Spine1 HEadDummy LeftShoulder1Dummy RightShoulderDummy
    HEadDummy HEad
    LeftShoulder1Dummy LeftShoulder1
    LeftShoulder1 LeftArm
    LeftArm LeftForeArm
    LeftForeArm LeftHand
    RightShoulderDummy RightShoulder
    RightShoulder RightArm
    RightArm RightForeArm
    RightForeArm RightHand
    LeftUpLegDummy LeftUpLeg
    LeftUpLeg LeftLeg
    LeftLeg LeftFoot
    LeftFoot LeftToes
  end

:SAMPLES-PER-SECOND 30
:FULLY-SPECIFIED
:DEGREES
563
root  6.91122 38.6005 7.15639 -152.908 86.7263 -155.025
RightUpLeg  -22.6562 -19.6416 -5.53786
RightLeg  29.1408 -5.69382 -3.66043
RightFoot  -3.3423 -0.330588 4.40315
RightToes  0.000481921 0.542163 -0.142578
Spine  36.8909 -1.61009 4.95455
Spine1  -13.1242 -0.223482 0.552033
HEad  -20.8195 3.87039 -2.90892
LeftShoulder1  6.84418 -12.831 -35.8193
LeftArm  1.58855 -7.74732 -40.5031
LeftForeArm  -173.93 -57.6424 -165.606
LeftHand  -0.25398 0.0180481 5.50724
RightShoulder  4.37383 9.90024 26.5751
RightArm  6.17348 2.34253 48.1744
RightForeArm  166.108 61.0791 161.715
RightHand  -1.10455 2.3105 -16.7972
LeftUpLeg  -17.2072 16.4511 17.5618
LeftLeg  19.6028 1.37566 0.868638
LeftFoot  -3.11098 1.03057 -14.033
LeftToes  1.06245e-005 4.65868e-005 -8.65517e-006
564
root  6.84986 38.5657 6.11241 -145.936 86.7968 -148.591
RightUpLeg  -22.6179 -17.8336 -6.94813
RightLeg  27.7888 -6.80532 -4.10545
RightFoot  -1.86717 -0.454623 5.33774
RightToes  0.000481921 0.542163 -0.142578
Spine  36.5215 -1.72491 4.94772
Spine1  -13.508 -0.390452 1.00238
HEad  -20.9789 3.9692 -2.67113
LeftShoulder1  6.82089 -12.7629 -35.8507
LeftArm  2.2526 -7.50901 -40.6105
LeftForeArm  -173.743 -57.4534 -165.724
LeftHand  -0.25398 0.0180481 5.50724
RightShoulder  4.31558 9.8226 26.319
RightArm  6.13816 2.91932 48.0305
RightForeArm  166.185 60.9542 161.81
RightHand  -1.06771 2.12638 -16.6292
LeftUpLeg  -19.1035 17.872 16.09
LeftLeg  22.0042 0.733759 0.659768
LeftFoot  -1.98572 1.197 -14.4364
LeftToes  1.06245e-005 4.65868e-005 -8.65517e-006
565
root  6.78155 38.5083 5.04227 -142.676 86.796 -145.462
RightUpLeg  -22.1605 -16.3581 -8.67148
RightLeg  26.5719 -7.79686 -4.44794
RightFoot  -0.441149 -0.55841 5.80906
RightToes  0.000481921 0.542163 -0.142578
Spine  36.4392 -1.87401 4.92222
Spine1  -13.458 -0.589718 1.38901
HEad  -21.5256 3.90348 -2.36895
LeftShoulder1  6.83417 -12.8183 -35.7914
LeftArm  2.93702 -7.25415 -40.6594
LeftForeArm  -173.864 -57.4986 -165.689
LeftHand  -0.25398 0.0180481 5.50724
RightShoulder  4.26914 9.7502 26.1388
RightArm  5.81649 3.63638 47.7764
RightForeArm  166.446 60.8628 161.899
RightHand  -1.05178 2.10876 -16.4246
LeftUpLeg  -21.1141 17.8733 14.4447
LeftLeg  25.4305 0.838163 0.775928
LeftFoot  -2.85256 0.986401 -12.9811
LeftToes  1.06245e-005 4.65868e-005 -8.65517e-006
566
root  6.73427 38.4689 3.96702 -138.812 87.4275 -141.165
RightUpLeg  -21.0805 -15.0551 -10.8009
RightLeg  25.1857 -7.79883 -4.20696
RightFoot  0.0664174 -0.685143 6.87215
RightToes  0.000481921 0.542163 -0.142578
Spine  36.7612 -1.84015 4.75192
Spine1  -13.0801 -0.513253 0.902785
HEad  -21.5864 3.58473 -2.18427
LeftShoulder1  6.91149 -12.9628 -35.8906
LeftArm  3.71846 -6.79475 -40.4645
LeftForeArm  -174.119 -57.8371 -165.485
LeftHand  -0.25398 0.0180481 5.50724
RightShoulder  4.24561 9.69605 26.091
RightArm  5.39815 4.11707 47.4549
RightForeArm  166.684 60.9633 161.851
RightHand  -1.06438 2.22563 -16.3736
LeftUpLeg  -21.8103 17.5351 12.6634
LeftLeg  28.1441 1.47786 1.20243
LeftFoot  -4.73681 0.678326 -11.2464
LeftToes  1.06245e-005 4.65868e-005 -8.65517e-006
567
root  6.71778 38.4681 2.9236 -116.45 88.4916 -118.309
RightUpLeg  -19.9794 -12.5465 -12.9628
RightLeg  23.6293 -7.50058 -3.79383
RightFoot  -1.115 -0.731951 8.08725
RightToes  0.000481921 0.542163 -0.142578
Spine  37.1159 -1.52784 4.41759
Spine1  -12.8335 -0.148059 0.0853844
HEad  -20.9048 3.219 -2.29925
LeftShoulder1  7.00473 -13.0375 -36.2557
LeftArm  4.54299 -5.92476 -40.0454
LeftForeArm  -174.409 -58.1578 -165.284
LeftHand  -0.25398 0.0180481 5.50724
RightShoulder  4.23129 9.63057 26.1445
RightArm  5.25048 4.2809 47.2358
RightForeArm  166.851 61.2285 161.678
RightHand  -1.0614 2.21626 -16.348
LeftUpLeg  -21.6621 17.7883 10.8329
LeftLeg  29.8245 2.33167 1.79609
LeftFoot  -6.04886 0.49299 -9.88376
LeftToes  1.06245e-005 4.65868e-005 -8.65517e-006
568
root  6.72063 38.4931 1.95758 -63.1179 88.8277 -64.8912
RightUpLeg  -19.6634 -7.98904 -14.6805
RightLeg  22.6693 -8.38436 -4.04037
RightFoot  -3.31816 -0.557296 7.55639
RightToes  0.000481921 0.542163 -0.142578
Spine  37.1294 -1.15784 4.12646
Spine1  -12.9059 0.194779 -0.22317
HEad  -20.1899 3.0454 -2.67803
LeftShoulder1  7.04067 -12.9754 -36.6229
LeftArm  5.20322 -4.77035 -39.6177
LeftForeArm  -174.617 -58.1027 -165.297
LeftHand  -0.25398 0.0180481 5.50724
RightShoulder  4.22616 9.57472 26.2468
RightArm  5.42508 4.20697 47.3066
RightForeArm  167.164 61.3999 161.584
RightHand  -1.02827 2.06416 -16.1568
LeftUpLeg  -21.7834 18.268 9.12943
LeftLeg  31.0141 3.18212 2.41967
LeftFoot  -6.74424 0.385525 -8.58942
LeftToes  1.06245e-005 4.65868e-005 -8.65517e-006
569
root  6.71604 38.5467 1.11277 -31.084 88.2968 -33.0462
RightUpLeg  -20.2969 -3.33164 -15.6614
RightLeg  23.2077 -10.0209 -4.89548
RightFoot  -5.0009 -0.325173 5.26879
RightToes  0.000481921 0.542163 -0.142578
Spine  37.031 -0.974041 3.8973
Spine1  -12.9805 0.314523 -0.218398
HEad  -20.1172 3.07084 -3.10418
LeftShoulder1  7.01722 -12.874 -36.7405
LeftArm  5.52662 -3.76674 -39.2809
LeftForeArm  -174.673 -57.7163 -165.506
LeftHand  -0.25398 0.0180481 5.50724
RightShoulder  4.2423 9.58358 26.3522
RightArm  5.67301 3.94521 47.7271
RightForeArm  167.65 61.3233 161.685
RightHand  -0.999553 1.97633 -15.8943
LeftUpLeg  -22.1623 18.3375 7.53142
LeftLeg  31.7169 4.01557 3.03117
LeftFoot  -7.42554 0.292207 -7.23385
LeftToes  1.06245e-005 4.65868e-005 -8.65517e-006
